<mxfile host="app.diagrams.net" agent="Mozilla/5.0 (Macintosh; Intel Mac OS X 10_15_7) AppleWebKit/537.36 (KHTML, like Gecko) Chrome/126.0.0.0 Safari/537.36" version="24.7.7">
  <diagram id="R2lEEEUBdFMjLlhIrx00" name="Page-1">
    <mxGraphModel dx="811" dy="808" grid="1" gridSize="10" guides="1" tooltips="1" connect="1" arrows="1" fold="1" page="1" pageScale="1" pageWidth="850" pageHeight="1100" math="0" shadow="0" extFonts="Permanent Marker^https://fonts.googleapis.com/css?family=Permanent+Marker">
      <root>
        <mxCell id="0" />
        <mxCell id="1" parent="0" />
        <mxCell id="D5zzJ316PHObMPMX6Ffj-1" value="Ticket" style="swimlane;childLayout=stackLayout;horizontal=1;startSize=50;horizontalStack=0;rounded=1;fontSize=14;fontStyle=0;strokeWidth=2;resizeParent=0;resizeLast=1;shadow=0;dashed=0;align=center;arcSize=4;whiteSpace=wrap;html=1;fillColor=#dae8fc;strokeColor=#6c8ebf;" parent="1" vertex="1">
          <mxGeometry x="60" y="90" width="160" height="120" as="geometry" />
        </mxCell>
        <mxCell id="D5zzJ316PHObMPMX6Ffj-2" value="TicketNumber&lt;div&gt;Price&lt;/div&gt;&lt;div&gt;FlightClass&lt;/div&gt;&lt;div&gt;ReservedDateTime&lt;/div&gt;" style="align=left;strokeColor=none;fillColor=none;spacingLeft=4;fontSize=12;verticalAlign=top;resizable=0;rotatable=0;part=1;html=1;" parent="D5zzJ316PHObMPMX6Ffj-1" vertex="1">
          <mxGeometry y="50" width="160" height="70" as="geometry" />
        </mxCell>
        <mxCell id="D5zzJ316PHObMPMX6Ffj-3" value="Airport" style="swimlane;childLayout=stackLayout;horizontal=1;startSize=50;horizontalStack=0;rounded=1;fontSize=14;fontStyle=0;strokeWidth=2;resizeParent=0;resizeLast=1;shadow=0;dashed=0;align=center;arcSize=4;whiteSpace=wrap;html=1;fillColor=#dae8fc;strokeColor=#6c8ebf;" parent="1" vertex="1">
          <mxGeometry x="440" y="80" width="160" height="140" as="geometry" />
        </mxCell>
        <mxCell id="D5zzJ316PHObMPMX6Ffj-4" value="IATACode&lt;div&gt;Name&lt;/div&gt;&lt;div&gt;City&lt;/div&gt;&lt;div&gt;State&lt;/div&gt;&lt;div&gt;Country&lt;/div&gt;" style="align=left;strokeColor=none;fillColor=none;spacingLeft=4;fontSize=12;verticalAlign=top;resizable=0;rotatable=0;part=1;html=1;" parent="D5zzJ316PHObMPMX6Ffj-3" vertex="1">
          <mxGeometry y="50" width="160" height="90" as="geometry" />
        </mxCell>
        <mxCell id="D5zzJ316PHObMPMX6Ffj-5" value="Flight" style="swimlane;childLayout=stackLayout;horizontal=1;startSize=50;horizontalStack=0;rounded=1;fontSize=14;fontStyle=0;strokeWidth=2;resizeParent=0;resizeLast=1;shadow=0;dashed=0;align=center;arcSize=4;whiteSpace=wrap;html=1;fillColor=#dae8fc;strokeColor=#6c8ebf;" parent="1" vertex="1">
          <mxGeometry x="345" y="270" width="315" height="160" as="geometry" />
        </mxCell>
        <mxCell id="D5zzJ316PHObMPMX6Ffj-6" value="Number&lt;div&gt;DepartureDateTime&lt;/div&gt;&lt;div&gt;ArrivalDateTime&lt;/div&gt;&lt;div&gt;Duration&lt;/div&gt;&lt;div&gt;Distance&lt;/div&gt;&lt;div&gt;Airline&lt;/div&gt;" style="align=left;strokeColor=none;fillColor=none;spacingLeft=4;fontSize=12;verticalAlign=top;resizable=0;rotatable=0;part=1;html=1;" parent="D5zzJ316PHObMPMX6Ffj-5" vertex="1">
          <mxGeometry y="50" width="315" height="110" as="geometry" />
        </mxCell>
        <mxCell id="D5zzJ316PHObMPMX6Ffj-7" value="Passenger" style="swimlane;childLayout=stackLayout;horizontal=1;startSize=50;horizontalStack=0;rounded=1;fontSize=14;fontStyle=0;strokeWidth=2;resizeParent=0;resizeLast=1;shadow=0;dashed=0;align=center;arcSize=4;whiteSpace=wrap;html=1;fillColor=#dae8fc;strokeColor=#6c8ebf;" parent="1" vertex="1">
          <mxGeometry x="60" y="290" width="160" height="120" as="geometry" />
        </mxCell>
        <mxCell id="D5zzJ316PHObMPMX6Ffj-8" value="FirstName&lt;div&gt;LastName&lt;/div&gt;&lt;div&gt;Passenger ID&lt;/div&gt;" style="align=left;strokeColor=none;fillColor=none;spacingLeft=4;fontSize=12;verticalAlign=top;resizable=0;rotatable=0;part=1;html=1;" parent="D5zzJ316PHObMPMX6Ffj-7" vertex="1">
          <mxGeometry y="50" width="160" height="70" as="geometry" />
        </mxCell>
        <mxCell id="D5zzJ316PHObMPMX6Ffj-9" value="" style="edgeStyle=orthogonalEdgeStyle;fontSize=12;html=1;endArrow=ERmany;startArrow=ERmany;rounded=0;entryX=0.25;entryY=0;entryDx=0;entryDy=0;" parent="1" target="D5zzJ316PHObMPMX6Ffj-5" edge="1">
          <mxGeometry width="100" height="100" relative="1" as="geometry">
            <mxPoint x="220" y="160" as="sourcePoint" />
            <mxPoint x="320" y="60" as="targetPoint" />
          </mxGeometry>
        </mxCell>
        <mxCell id="D5zzJ316PHObMPMX6Ffj-11" value="Issued For" style="edgeLabel;html=1;align=center;verticalAlign=middle;resizable=0;points=[];fontSize=12;" parent="D5zzJ316PHObMPMX6Ffj-9" vertex="1" connectable="0">
          <mxGeometry x="-0.368" y="-1" relative="1" as="geometry">
            <mxPoint as="offset" />
          </mxGeometry>
        </mxCell>
        <mxCell id="D5zzJ316PHObMPMX6Ffj-10" value="Depart/Arrives At" style="fontSize=12;html=1;endArrow=ERmany;startArrow=ERmany;rounded=0;entryX=0.5;entryY=1;entryDx=0;entryDy=0;" parent="1" target="D5zzJ316PHObMPMX6Ffj-4" edge="1">
          <mxGeometry width="100" height="100" relative="1" as="geometry">
            <mxPoint x="520" y="270" as="sourcePoint" />
            <mxPoint x="620" y="170" as="targetPoint" />
            <Array as="points" />
          </mxGeometry>
        </mxCell>
        <mxCell id="D5zzJ316PHObMPMX6Ffj-12" value="" style="fontSize=12;html=1;endArrow=ERmany;startArrow=ERmany;rounded=0;exitX=1;exitY=0.25;exitDx=0;exitDy=0;" parent="1" source="D5zzJ316PHObMPMX6Ffj-8" edge="1">
          <mxGeometry width="100" height="100" relative="1" as="geometry">
            <mxPoint x="240" y="460" as="sourcePoint" />
            <mxPoint x="340" y="358" as="targetPoint" />
          </mxGeometry>
        </mxCell>
        <mxCell id="D5zzJ316PHObMPMX6Ffj-13" value="Reserved" style="edgeLabel;html=1;align=center;verticalAlign=middle;resizable=0;points=[];fontSize=12;" parent="D5zzJ316PHObMPMX6Ffj-12" vertex="1" connectable="0">
          <mxGeometry x="-0.0169" y="4" relative="1" as="geometry">
            <mxPoint as="offset" />
          </mxGeometry>
        </mxCell>
        <mxCell id="D5zzJ316PHObMPMX6Ffj-14" value="" style="fontSize=12;html=1;endArrow=ERmany;startArrow=ERmany;rounded=0;entryX=0.5;entryY=1;entryDx=0;entryDy=0;exitX=0.5;exitY=0;exitDx=0;exitDy=0;" parent="1" source="D5zzJ316PHObMPMX6Ffj-7" target="D5zzJ316PHObMPMX6Ffj-2" edge="1">
          <mxGeometry width="100" height="100" relative="1" as="geometry">
            <mxPoint x="130" y="290" as="sourcePoint" />
            <mxPoint x="230" y="190" as="targetPoint" />
          </mxGeometry>
        </mxCell>
        <mxCell id="D5zzJ316PHObMPMX6Ffj-15" value="Purchases" style="edgeLabel;html=1;align=center;verticalAlign=middle;resizable=0;points=[];fontSize=12;" parent="D5zzJ316PHObMPMX6Ffj-14" vertex="1" connectable="0">
          <mxGeometry x="0.025" relative="1" as="geometry">
            <mxPoint as="offset" />
          </mxGeometry>
        </mxCell>
      </root>
    </mxGraphModel>
  </diagram>
</mxfile>
